{
    "asset": {
        "version": "2.0",
        "generator": "Open Asset Import Library (assimp v5.0.5eb040c7)"
    },
    "accessors": [
        {
            "bufferView": 0,
            "byteOffset": 0,
            "componentType": 5126,
            "count": 2502,
            "type": "VEC3",
            "max": [
                0.21817320585250855,
                0.13874860107898713,
                0.5035592317581177
            ],
            "min": [
                -0.21359793841838838,
                -0.10037727653980255,
                -0.4949047863483429
            ]
        },
        {
            "bufferView": 1,
            "byteOffset": 0,
            "componentType": 5126,
            "count": 2502,
            "type": "VEC3",
            "max": [
                0.9999355673789978,
                0.9999692440032959,
                0.9999476671218872
            ],
            "min": [
                -0.999991774559021,
                -0.9999995827674866,
                -0.9998801350593567
            ]
        },
        {
            "bufferView": 2,
            "byteOffset": 0,
            "componentType": 5125,
            "count": 15000,
            "type": "SCALAR",
            "max": [
                2501
            ],
            "min": [
                0
            ]
        }
    ],
    "buffers": [
        {
            "byteLength": 120048,
            "uri": "result.bin"
        }
    ],
    "bufferViews": [
        {
            "buffer": 0,
            "byteOffset": 0,
            "byteLength": 30024,
            "target": 34962
        },
        {
            "buffer": 0,
            "byteOffset": 30024,
            "byteLength": 30024,
            "target": 34962
        },
        {
            "buffer": 0,
            "byteOffset": 60048,
            "byteLength": 60000,
            "target": 34963
        }
    ],
    "materials": [
        {
            "name": "DefaultMaterial",
            "pbrMetallicRoughness": {
                "baseColorFactor": [
                    0.6000000238418579,
                    0.6000000238418579,
                    0.6000000238418579,
                    1.0
                ],
                "metallicFactor": 0.0
            }
        },
        {
            "name": "$Material_0",
            "pbrMetallicRoughness": {
                "baseColorFactor": [
                    0.6000000238418579,
                    0.6000000238418579,
                    0.6000000238418579,
                    1.0
                ],
                "metallicFactor": 0.0
            }
        }
    ],
    "meshes": [
        {
            "name": "defaultobject",
            "primitives": [
                {
                    "mode": 4,
                    "material": 1,
                    "indices": 2,
                    "attributes": {
                        "POSITION": 0,
                        "NORMAL": 1
                    }
                }
            ]
        }
    ],
    "nodes": [
        {
            "name": "input.obj",
            "children": [
                1
            ]
        },
        {
            "name": "defaultobject",
            "mesh": 0
        }
    ],
    "scenes": [
        {
            "nodes": [
                0
            ]
        }
    ],
    "scene": 0
}