{"scene": 0, "scenes": [{"nodes": [0]}], "asset": {"version": "2.0", "generator": "https://github.com/mikedh/trimesh"}, "accessors": [{"bufferView": 0, "componentType": 5125, "count": 15000, "max": [2497], "min": [0], "type": "SCALAR"}, {"bufferView": 1, "componentType": 5126, "count": 2498, "type": "VEC3", "byteOffset": 0, "max": [0.18794861, 0.24625349, 0.5073548], "min": [-0.19396998, -0.25476527, -0.50806558]}, {"bufferView": 2, "componentType": 5126, "count": 2498, "type": "VEC3", "byteOffset": 0}], "meshes": [{"name": "geometry_0", "primitives": [{"attributes": {"POSITION": 1, "NORMAL": 2}, "indices": 0, "mode": 4}]}], "samplers": [{}], "nodes": [{"name": "world", "children": [1]}, {"name": "geometry_0", "mesh": 0}], "buffers": [{"uri": "gltf_buffer.bin", "byteLength": 119952}], "bufferViews": [{"buffer": 0, "byteOffset": 0, "byteLength": 60000}, {"buffer": 0, "byteOffset": 60000, "byteLength": 29976}, {"buffer": 0, "byteOffset": 89976, "byteLength": 29976}]}