{"scene": 0, "scenes": [{"nodes": [0]}], "asset": {"version": "2.0", "generator": "https://github.com/mikedh/trimesh"}, "accessors": [{"bufferView": 0, "componentType": 5125, "count": 15000, "max": [2501], "min": [0], "type": "SCALAR"}, {"bufferView": 1, "componentType": 5126, "count": 2502, "type": "VEC3", "byteOffset": 0, "max": [0.35832682, 0.29198766, 0.50153792], "min": [-0.3389788, -0.25397491, -0.49946001]}], "meshes": [{"name": "geometry_0", "primitives": [{"attributes": {"POSITION": 1}, "indices": 0, "mode": 4}]}], "samplers": [{}], "nodes": [{"name": "world", "children": [1]}, {"name": "geometry_0", "mesh": 0}], "buffers": [{"uri": "gltf_buffer.bin", "byteLength": 90024}], "bufferViews": [{"buffer": 0, "byteOffset": 0, "byteLength": 60000}, {"buffer": 0, "byteOffset": 60000, "byteLength": 30024}]}